<?xml version="1.0" encoding="UTF-8" standalone="no"?>
<!DOCTYPE svg PUBLIC "-//W3C//DTD SVG 1.1//EN"
 "http://www.w3.org/Graphics/SVG/1.1/DTD/svg11.dtd">
<!-- Generated by graphviz version 2.40.1 (20161225.0304)
 -->
<!-- Title: callgraph Pages: 1 -->
<svg width="2530pt" height="731pt"
 viewBox="0.00 0.00 2529.50 731.00" xmlns="http://www.w3.org/2000/svg" xmlns:xlink="http://www.w3.org/1999/xlink">
<g id="graph0" class="graph" transform="scale(1 1) rotate(0) translate(4 727)">
<title>callgraph</title>
<polygon fill="#ffffff" stroke="transparent" points="-4,4 -4,-727 2525.5,-727 2525.5,4 -4,4"/>
<g id="clust1" class="cluster">
<title>cluster_0</title>
<polygon fill="none" stroke="#000000" points="1846,-640 1846,-715 2146,-715 2146,-640 1846,-640"/>
<text text-anchor="middle" x="1996" y="-699.8" font-family="Times,serif" font-size="14.00" fill="#000000">Legend</text>
</g>
<!-- View -->
<g id="node1" class="node">
<title>View</title>
<polygon fill="#00ff00" stroke="#00ff00" points="2138,-684 2084,-684 2084,-648 2138,-648 2138,-684"/>
<text text-anchor="middle" x="2111" y="-662.3" font-family="Times,serif" font-size="14.00" fill="#000000">View</text>
</g>
<!-- Model -->
<g id="node2" class="node">
<title>Model</title>
<polygon fill="#8b4513" stroke="#8b4513" points="2066,-684 2012,-684 2012,-648 2066,-648 2066,-684"/>
<text text-anchor="middle" x="2039" y="-662.3" font-family="Times,serif" font-size="14.00" fill="#000000">Model</text>
</g>
<!-- Presenter -->
<g id="node3" class="node">
<title>Presenter</title>
<polygon fill="#0000ff" stroke="#0000ff" points="1993.5,-684 1926.5,-684 1926.5,-648 1993.5,-648 1993.5,-684"/>
<text text-anchor="middle" x="1960" y="-662.3" font-family="Times,serif" font-size="14.00" fill="#000000">Presenter</text>
</g>
<!-- State -->
<g id="node4" class="node">
<title>State</title>
<polygon fill="#ff0000" stroke="#ff0000" points="1908,-684 1854,-684 1854,-648 1908,-648 1908,-684"/>
<text text-anchor="middle" x="1881" y="-662.3" font-family="Times,serif" font-size="14.00" fill="#000000">State</text>
</g>
<!-- stateInitialStateModel -->
<g id="node5" class="node">
<title>stateInitialStateModel</title>
<polygon fill="#8b4513" stroke="#000000" points="2069.5,-612 1932.5,-612 1932.5,-576 2069.5,-576 2069.5,-612"/>
<text text-anchor="middle" x="2001" y="-590.3" font-family="Times,serif" font-size="14.00" fill="#000000">stateInitialStateModel</text>
</g>
<!-- stateInitialStatePresenter -->
<g id="node6" class="node">
<title>stateInitialStatePresenter</title>
<polygon fill="#0000ff" stroke="#000000" points="2307.5,-684 2156.5,-684 2156.5,-648 2307.5,-648 2307.5,-684"/>
<text text-anchor="middle" x="2232" y="-662.3" font-family="Times,serif" font-size="14.00" fill="#000000">stateInitialStatePresenter</text>
</g>
<!-- stateInitialStatePresenter&#45;&gt;stateInitialStateModel -->
<g id="edge1" class="edge">
<title>stateInitialStatePresenter&#45;&gt;stateInitialStateModel</title>
<path fill="none" stroke="#000000" d="M2175.113,-647.9011C2166.696,-645.2411 2158.1243,-642.542 2150,-640 2123.7689,-631.7924 2094.9094,-622.8602 2069.6317,-615.0689"/>
<polygon fill="#000000" stroke="#000000" points="2070.3565,-611.6299 2059.7693,-612.0308 2068.2957,-618.3197 2070.3565,-611.6299"/>
</g>
<!-- stateInitialStateView -->
<g id="node7" class="node">
<title>stateInitialStateView</title>
<polygon fill="#00ff00" stroke="#000000" points="2218,-612 2088,-612 2088,-576 2218,-576 2218,-612"/>
<text text-anchor="middle" x="2153" y="-590.3" font-family="Times,serif" font-size="14.00" fill="#000000">stateInitialStateView</text>
</g>
<!-- stateInitialStatePresenter&#45;&gt;stateInitialStateView -->
<g id="edge2" class="edge">
<title>stateInitialStatePresenter&#45;&gt;stateInitialStateView</title>
<path fill="none" stroke="#000000" d="M2212.065,-647.8314C2202.5217,-639.1337 2190.9401,-628.5783 2180.5694,-619.1265"/>
<polygon fill="#000000" stroke="#000000" points="2182.6772,-616.3121 2172.9287,-612.1628 2177.962,-621.4857 2182.6772,-616.3121"/>
</g>
<!-- stateShowBareBonePage -->
<g id="node8" class="node">
<title>stateShowBareBonePage</title>
<polygon fill="#ff0000" stroke="#000000" points="2388,-612 2236,-612 2236,-576 2388,-576 2388,-612"/>
<text text-anchor="middle" x="2312" y="-590.3" font-family="Times,serif" font-size="14.00" fill="#000000">stateShowBareBonePage</text>
</g>
<!-- stateInitialStatePresenter&#45;&gt;stateShowBareBonePage -->
<g id="edge3" class="edge">
<title>stateInitialStatePresenter&#45;&gt;stateShowBareBonePage</title>
<path fill="none" stroke="#000000" d="M2252.1874,-647.8314C2261.8514,-639.1337 2273.5796,-628.5783 2284.0816,-619.1265"/>
<polygon fill="#000000" stroke="#000000" points="2286.7275,-621.454 2291.8191,-612.1628 2282.0447,-616.251 2286.7275,-621.454"/>
</g>
<!-- stateShowBareBonePagePresenter -->
<g id="node19" class="node">
<title>stateShowBareBonePagePresenter</title>
<polygon fill="#0000ff" stroke="#000000" points="2360.5,-540 2157.5,-540 2157.5,-504 2360.5,-504 2360.5,-540"/>
<text text-anchor="middle" x="2259" y="-518.3" font-family="Times,serif" font-size="14.00" fill="#000000">stateShowBareBonePagePresenter</text>
</g>
<!-- stateShowBareBonePage&#45;&gt;stateShowBareBonePagePresenter -->
<g id="edge15" class="edge">
<title>stateShowBareBonePage&#45;&gt;stateShowBareBonePagePresenter</title>
<path fill="none" stroke="#000000" d="M2298.6259,-575.8314C2292.5838,-567.6232 2285.3237,-557.7606 2278.6779,-548.7323"/>
<polygon fill="#000000" stroke="#000000" points="2281.3011,-546.3918 2272.5542,-540.4133 2275.6637,-550.5415 2281.3011,-546.3918"/>
</g>
<!-- stateInitialState -->
<g id="node9" class="node">
<title>stateInitialState</title>
<polygon fill="#c0c0c0" stroke="#000000" points="2521.5,-36 2420.5,-36 2420.5,0 2521.5,0 2521.5,-36"/>
<text text-anchor="middle" x="2471" y="-14.3" font-family="Times,serif" font-size="14.00" fill="#000000">stateInitialState</text>
</g>
<!-- stateInitialState&#45;&gt;stateInitialStatePresenter -->
<g id="edge4" class="edge">
<title>stateInitialState&#45;&gt;stateInitialStatePresenter</title>
<path fill="none" stroke="#000000" d="M2470.7928,-36.1851C2470.4999,-63.5011 2470,-116.7489 2470,-162 2470,-522 2470,-522 2470,-522 2470,-595.5331 2385.8065,-632.5359 2317.5715,-650.4501"/>
<polygon fill="#000000" stroke="#000000" points="2316.4722,-647.1177 2307.6317,-652.9568 2318.184,-653.9052 2316.4722,-647.1177"/>
</g>
<!-- stateShowAdminPanelModel -->
<g id="node10" class="node">
<title>stateShowAdminPanelModel</title>
<polygon fill="#8b4513" stroke="#000000" points="827,-324 651,-324 651,-288 827,-288 827,-324"/>
<text text-anchor="middle" x="739" y="-302.3" font-family="Times,serif" font-size="14.00" fill="#000000">stateShowAdminPanelModel</text>
</g>
<!-- stateShowAdminPanelPresenter -->
<g id="node11" class="node">
<title>stateShowAdminPanelPresenter</title>
<polygon fill="#0000ff" stroke="#000000" points="1393.5,-396 1202.5,-396 1202.5,-360 1393.5,-360 1393.5,-396"/>
<text text-anchor="middle" x="1298" y="-374.3" font-family="Times,serif" font-size="14.00" fill="#000000">stateShowAdminPanelPresenter</text>
</g>
<!-- stateShowAdminPanelPresenter&#45;&gt;stateShowAdminPanelModel -->
<g id="edge5" class="edge">
<title>stateShowAdminPanelPresenter&#45;&gt;stateShowAdminPanelModel</title>
<path fill="none" stroke="#000000" d="M1202.1888,-368.6964C1110.8625,-359.3928 969.2785,-343.8391 837.1465,-324.1232"/>
<polygon fill="#000000" stroke="#000000" points="837.6545,-320.6604 827.2454,-322.6353 836.6142,-327.5826 837.6545,-320.6604"/>
</g>
<!-- stateShowAdminPanelView -->
<g id="node12" class="node">
<title>stateShowAdminPanelView</title>
<polygon fill="#00ff00" stroke="#000000" points="1383,-324 1213,-324 1213,-288 1383,-288 1383,-324"/>
<text text-anchor="middle" x="1298" y="-302.3" font-family="Times,serif" font-size="14.00" fill="#000000">stateShowAdminPanelView</text>
</g>
<!-- stateShowAdminPanelPresenter&#45;&gt;stateShowAdminPanelView -->
<g id="edge6" class="edge">
<title>stateShowAdminPanelPresenter&#45;&gt;stateShowAdminPanelView</title>
<path fill="none" stroke="#000000" d="M1298,-359.8314C1298,-352.131 1298,-342.9743 1298,-334.4166"/>
<polygon fill="#000000" stroke="#000000" points="1301.5001,-334.4132 1298,-324.4133 1294.5001,-334.4133 1301.5001,-334.4132"/>
</g>
<!-- stateShowUserMenu -->
<g id="node13" class="node">
<title>stateShowUserMenu</title>
<polygon fill="#ff0000" stroke="#000000" points="1531,-324 1401,-324 1401,-288 1531,-288 1531,-324"/>
<text text-anchor="middle" x="1466" y="-302.3" font-family="Times,serif" font-size="14.00" fill="#000000">stateShowUserMenu</text>
</g>
<!-- stateShowAdminPanelPresenter&#45;&gt;stateShowUserMenu -->
<g id="edge7" class="edge">
<title>stateShowAdminPanelPresenter&#45;&gt;stateShowUserMenu</title>
<path fill="none" stroke="#000000" d="M1340.3935,-359.8314C1362.9624,-350.159 1390.8921,-338.1891 1414.6796,-327.9944"/>
<polygon fill="#000000" stroke="#000000" points="1416.0986,-331.1943 1423.9114,-324.038 1413.3412,-324.7602 1416.0986,-331.1943"/>
</g>
<!-- stateShowUsersPage -->
<g id="node14" class="node">
<title>stateShowUsersPage</title>
<polygon fill="#ff0000" stroke="#000000" points="1961.5,-324 1832.5,-324 1832.5,-288 1961.5,-288 1961.5,-324"/>
<text text-anchor="middle" x="1897" y="-302.3" font-family="Times,serif" font-size="14.00" fill="#000000">stateShowUsersPage</text>
</g>
<!-- stateShowAdminPanelPresenter&#45;&gt;stateShowUsersPage -->
<g id="edge8" class="edge">
<title>stateShowAdminPanelPresenter&#45;&gt;stateShowUsersPage</title>
<path fill="none" stroke="#000000" d="M1393.5757,-366.5118C1512.6078,-352.2041 1713.4807,-328.0591 1822.0156,-315.0131"/>
<polygon fill="#000000" stroke="#000000" points="1822.7141,-318.4545 1832.2249,-313.786 1821.8786,-311.5045 1822.7141,-318.4545"/>
</g>
<!-- stateShowDepartmentsPage -->
<g id="node15" class="node">
<title>stateShowDepartmentsPage</title>
<polygon fill="#ff0000" stroke="#000000" points="1013,-324 845,-324 845,-288 1013,-288 1013,-324"/>
<text text-anchor="middle" x="929" y="-302.3" font-family="Times,serif" font-size="14.00" fill="#000000">stateShowDepartmentsPage</text>
</g>
<!-- stateShowAdminPanelPresenter&#45;&gt;stateShowDepartmentsPage -->
<g id="edge9" class="edge">
<title>stateShowAdminPanelPresenter&#45;&gt;stateShowDepartmentsPage</title>
<path fill="none" stroke="#000000" d="M1205.362,-359.9243C1149.6765,-349.0588 1079.002,-335.2687 1023.0635,-324.3538"/>
<polygon fill="#000000" stroke="#000000" points="1023.6386,-320.9001 1013.1534,-322.4202 1022.298,-327.7706 1023.6386,-320.9001"/>
</g>
<!-- stateShowPermissionsPage -->
<g id="node16" class="node">
<title>stateShowPermissionsPage</title>
<polygon fill="#ff0000" stroke="#000000" points="1195,-324 1031,-324 1031,-288 1195,-288 1195,-324"/>
<text text-anchor="middle" x="1113" y="-302.3" font-family="Times,serif" font-size="14.00" fill="#000000">stateShowPermissionsPage</text>
</g>
<!-- stateShowAdminPanelPresenter&#45;&gt;stateShowPermissionsPage -->
<g id="edge10" class="edge">
<title>stateShowAdminPanelPresenter&#45;&gt;stateShowPermissionsPage</title>
<path fill="none" stroke="#000000" d="M1251.3167,-359.8314C1226.2441,-350.0734 1195.1633,-337.977 1168.8191,-327.7242"/>
<polygon fill="#000000" stroke="#000000" points="1169.9362,-324.4033 1159.3476,-324.038 1167.3973,-330.9266 1169.9362,-324.4033"/>
</g>
<!-- stateShowUserMenuPresenter -->
<g id="node44" class="node">
<title>stateShowUserMenuPresenter</title>
<polygon fill="#0000ff" stroke="#000000" points="1556,-252 1376,-252 1376,-216 1556,-216 1556,-252"/>
<text text-anchor="middle" x="1466" y="-230.3" font-family="Times,serif" font-size="14.00" fill="#000000">stateShowUserMenuPresenter</text>
</g>
<!-- stateShowUserMenu&#45;&gt;stateShowUserMenuPresenter -->
<g id="edge42" class="edge">
<title>stateShowUserMenu&#45;&gt;stateShowUserMenuPresenter</title>
<path fill="none" stroke="#000000" d="M1466,-287.8314C1466,-280.131 1466,-270.9743 1466,-262.4166"/>
<polygon fill="#000000" stroke="#000000" points="1469.5001,-262.4132 1466,-252.4133 1462.5001,-262.4133 1469.5001,-262.4132"/>
</g>
<!-- stateShowUsersPagePresenter -->
<g id="node48" class="node">
<title>stateShowUsersPagePresenter</title>
<polygon fill="#0000ff" stroke="#000000" points="2269.5,-252 2090.5,-252 2090.5,-216 2269.5,-216 2269.5,-252"/>
<text text-anchor="middle" x="2180" y="-230.3" font-family="Times,serif" font-size="14.00" fill="#000000">stateShowUsersPagePresenter</text>
</g>
<!-- stateShowUsersPage&#45;&gt;stateShowUsersPagePresenter -->
<g id="edge45" class="edge">
<title>stateShowUsersPage&#45;&gt;stateShowUsersPagePresenter</title>
<path fill="none" stroke="#000000" d="M1961.5712,-289.572C2002.4446,-279.1731 2055.6218,-265.6439 2099.273,-254.5383"/>
<polygon fill="#000000" stroke="#000000" points="2100.1758,-257.9202 2109.0041,-252.0626 2098.4499,-251.1363 2100.1758,-257.9202"/>
</g>
<!-- stateShowDepartmentsPagePresenter -->
<g id="node30" class="node">
<title>stateShowDepartmentsPagePresenter</title>
<polygon fill="#0000ff" stroke="#000000" points="430,-252 212,-252 212,-216 430,-216 430,-252"/>
<text text-anchor="middle" x="321" y="-230.3" font-family="Times,serif" font-size="14.00" fill="#000000">stateShowDepartmentsPagePresenter</text>
</g>
<!-- stateShowDepartmentsPage&#45;&gt;stateShowDepartmentsPagePresenter -->
<g id="edge24" class="edge">
<title>stateShowDepartmentsPage&#45;&gt;stateShowDepartmentsPagePresenter</title>
<path fill="none" stroke="#000000" d="M844.9066,-289.385C841.9038,-288.8997 838.9279,-288.436 836,-288 701.0031,-267.897 544.998,-252.646 440.3811,-243.5624"/>
<polygon fill="#000000" stroke="#000000" points="440.3675,-240.0483 430.1035,-242.6755 439.7656,-247.0224 440.3675,-240.0483"/>
</g>
<!-- stateShowPermissionsPagePresenter -->
<g id="node41" class="node">
<title>stateShowPermissionsPagePresenter</title>
<polygon fill="#0000ff" stroke="#000000" points="860.5,-252 645.5,-252 645.5,-216 860.5,-216 860.5,-252"/>
<text text-anchor="middle" x="753" y="-230.3" font-family="Times,serif" font-size="14.00" fill="#000000">stateShowPermissionsPagePresenter</text>
</g>
<!-- stateShowPermissionsPage&#45;&gt;stateShowPermissionsPagePresenter -->
<g id="edge34" class="edge">
<title>stateShowPermissionsPage&#45;&gt;stateShowPermissionsPagePresenter</title>
<path fill="none" stroke="#000000" d="M1030.86,-289.572C978.101,-279.0202 909.2267,-265.2453 853.2498,-254.05"/>
<polygon fill="#000000" stroke="#000000" points="853.805,-250.5918 843.3128,-252.0626 852.4322,-257.4558 853.805,-250.5918"/>
</g>
<!-- stateShowAdminPanel -->
<g id="node17" class="node">
<title>stateShowAdminPanel</title>
<polygon fill="#ff0000" stroke="#000000" points="2426,-468 2286,-468 2286,-432 2426,-432 2426,-468"/>
<text text-anchor="middle" x="2356" y="-446.3" font-family="Times,serif" font-size="14.00" fill="#000000">stateShowAdminPanel</text>
</g>
<!-- stateShowAdminPanel&#45;&gt;stateShowAdminPanelPresenter -->
<g id="edge11" class="edge">
<title>stateShowAdminPanel&#45;&gt;stateShowAdminPanelPresenter</title>
<path fill="none" stroke="#000000" d="M2285.9028,-433.3823C2282.9023,-432.8756 2279.9253,-432.4109 2277,-432 2111.0654,-408.6901 1621.3453,-389.2958 1403.9879,-381.5806"/>
<polygon fill="#000000" stroke="#000000" points="1403.9633,-378.0777 1393.8458,-381.2221 1403.7159,-385.0733 1403.9633,-378.0777"/>
</g>
<!-- stateShowBareBonePageModel -->
<g id="node18" class="node">
<title>stateShowBareBonePageModel</title>
<polygon fill="#8b4513" stroke="#000000" points="2068,-468 1880,-468 1880,-432 2068,-432 2068,-468"/>
<text text-anchor="middle" x="1974" y="-446.3" font-family="Times,serif" font-size="14.00" fill="#000000">stateShowBareBonePageModel</text>
</g>
<!-- stateShowBareBonePagePresenter&#45;&gt;stateShowAdminPanel -->
<g id="edge14" class="edge">
<title>stateShowBareBonePagePresenter&#45;&gt;stateShowAdminPanel</title>
<path fill="none" stroke="#000000" d="M2283.4772,-503.8314C2295.5395,-494.8779 2310.254,-483.9558 2323.2686,-474.2955"/>
<polygon fill="#000000" stroke="#000000" points="2325.587,-476.9335 2331.5306,-468.1628 2321.4148,-471.3127 2325.587,-476.9335"/>
</g>
<!-- stateShowBareBonePagePresenter&#45;&gt;stateShowBareBonePageModel -->
<g id="edge12" class="edge">
<title>stateShowBareBonePagePresenter&#45;&gt;stateShowBareBonePageModel</title>
<path fill="none" stroke="#000000" d="M2187.4503,-503.9243C2147.3034,-493.7819 2097.0692,-481.0912 2055.4207,-470.5694"/>
<polygon fill="#000000" stroke="#000000" points="2056.1318,-467.1392 2045.5791,-468.0831 2054.4172,-473.926 2056.1318,-467.1392"/>
</g>
<!-- stateShowBareBonePageView -->
<g id="node20" class="node">
<title>stateShowBareBonePageView</title>
<polygon fill="#00ff00" stroke="#000000" points="2268,-468 2086,-468 2086,-432 2268,-432 2268,-468"/>
<text text-anchor="middle" x="2177" y="-446.3" font-family="Times,serif" font-size="14.00" fill="#000000">stateShowBareBonePageView</text>
</g>
<!-- stateShowBareBonePagePresenter&#45;&gt;stateShowBareBonePageView -->
<g id="edge13" class="edge">
<title>stateShowBareBonePagePresenter&#45;&gt;stateShowBareBonePageView</title>
<path fill="none" stroke="#000000" d="M2238.3079,-503.8314C2228.3052,-495.0485 2216.145,-484.3712 2205.3001,-474.8489"/>
<polygon fill="#000000" stroke="#000000" points="2207.5092,-472.1308 2197.6854,-468.1628 2202.8906,-477.3909 2207.5092,-472.1308"/>
</g>
<!-- stateShowConfigurationPageModel -->
<g id="node21" class="node">
<title>stateShowConfigurationPageModel</title>
<polygon fill="#8b4513" stroke="#000000" points="1805,-36 1595,-36 1595,0 1805,0 1805,-36"/>
<text text-anchor="middle" x="1700" y="-14.3" font-family="Times,serif" font-size="14.00" fill="#000000">stateShowConfigurationPageModel</text>
</g>
<!-- stateShowConfigurationPagePresenter -->
<g id="node22" class="node">
<title>stateShowConfigurationPagePresenter</title>
<polygon fill="#0000ff" stroke="#000000" points="1813,-108 1589,-108 1589,-72 1813,-72 1813,-108"/>
<text text-anchor="middle" x="1701" y="-86.3" font-family="Times,serif" font-size="14.00" fill="#000000">stateShowConfigurationPagePresenter</text>
</g>
<!-- stateShowConfigurationPagePresenter&#45;&gt;stateShowConfigurationPageModel -->
<g id="edge16" class="edge">
<title>stateShowConfigurationPagePresenter&#45;&gt;stateShowConfigurationPageModel</title>
<path fill="none" stroke="#000000" d="M1700.7477,-71.8314C1700.6407,-64.131 1700.5135,-54.9743 1700.3947,-46.4166"/>
<polygon fill="#000000" stroke="#000000" points="1703.8944,-46.3637 1700.2557,-36.4133 1696.8951,-46.4609 1703.8944,-46.3637"/>
</g>
<!-- stateShowConfigurationPageView -->
<g id="node23" class="node">
<title>stateShowConfigurationPageView</title>
<polygon fill="#00ff00" stroke="#000000" points="2026.5,-36 1823.5,-36 1823.5,0 2026.5,0 2026.5,-36"/>
<text text-anchor="middle" x="1925" y="-14.3" font-family="Times,serif" font-size="14.00" fill="#000000">stateShowConfigurationPageView</text>
</g>
<!-- stateShowConfigurationPagePresenter&#45;&gt;stateShowConfigurationPageView -->
<g id="edge17" class="edge">
<title>stateShowConfigurationPagePresenter&#45;&gt;stateShowConfigurationPageView</title>
<path fill="none" stroke="#000000" d="M1757.2355,-71.9243C1788.1239,-61.9959 1826.6096,-49.6255 1858.9256,-39.2382"/>
<polygon fill="#000000" stroke="#000000" points="1860.2921,-42.4754 1868.7413,-36.0831 1858.15,-35.8112 1860.2921,-42.4754"/>
</g>
<!-- stateShowConfigurationPage -->
<g id="node24" class="node">
<title>stateShowConfigurationPage</title>
<polygon fill="#ff0000" stroke="#000000" points="1739,-180 1565,-180 1565,-144 1739,-144 1739,-180"/>
<text text-anchor="middle" x="1652" y="-158.3" font-family="Times,serif" font-size="14.00" fill="#000000">stateShowConfigurationPage</text>
</g>
<!-- stateShowConfigurationPage&#45;&gt;stateShowConfigurationPagePresenter -->
<g id="edge18" class="edge">
<title>stateShowConfigurationPage&#45;&gt;stateShowConfigurationPagePresenter</title>
<path fill="none" stroke="#000000" d="M1664.3648,-143.8314C1669.9509,-135.6232 1676.663,-125.7606 1682.8072,-116.7323"/>
<polygon fill="#000000" stroke="#000000" points="1685.736,-118.6496 1688.4687,-108.4133 1679.949,-114.7112 1685.736,-118.6496"/>
</g>
<!-- stateShowDashboardsPageModel -->
<g id="node25" class="node">
<title>stateShowDashboardsPageModel</title>
<polygon fill="#8b4513" stroke="#000000" points="1367,-36 1169,-36 1169,0 1367,0 1367,-36"/>
<text text-anchor="middle" x="1268" y="-14.3" font-family="Times,serif" font-size="14.00" fill="#000000">stateShowDashboardsPageModel</text>
</g>
<!-- stateShowDashboardsPagePresenter -->
<g id="node26" class="node">
<title>stateShowDashboardsPagePresenter</title>
<polygon fill="#0000ff" stroke="#000000" points="1571,-108 1359,-108 1359,-72 1571,-72 1571,-108"/>
<text text-anchor="middle" x="1465" y="-86.3" font-family="Times,serif" font-size="14.00" fill="#000000">stateShowDashboardsPagePresenter</text>
</g>
<!-- stateShowDashboardsPagePresenter&#45;&gt;stateShowDashboardsPageModel -->
<g id="edge19" class="edge">
<title>stateShowDashboardsPagePresenter&#45;&gt;stateShowDashboardsPageModel</title>
<path fill="none" stroke="#000000" d="M1415.5429,-71.9243C1388.7289,-62.1243 1355.4051,-49.945 1327.2153,-39.6422"/>
<polygon fill="#000000" stroke="#000000" points="1328.0713,-36.2286 1317.4775,-36.0831 1325.6684,-42.8033 1328.0713,-36.2286"/>
</g>
<!-- stateShowDashboardsPageView -->
<g id="node27" class="node">
<title>stateShowDashboardsPageView</title>
<polygon fill="#00ff00" stroke="#000000" points="1576.5,-36 1385.5,-36 1385.5,0 1576.5,0 1576.5,-36"/>
<text text-anchor="middle" x="1481" y="-14.3" font-family="Times,serif" font-size="14.00" fill="#000000">stateShowDashboardsPageView</text>
</g>
<!-- stateShowDashboardsPagePresenter&#45;&gt;stateShowDashboardsPageView -->
<g id="edge20" class="edge">
<title>stateShowDashboardsPagePresenter&#45;&gt;stateShowDashboardsPageView</title>
<path fill="none" stroke="#000000" d="M1469.0375,-71.8314C1470.7487,-64.131 1472.7835,-54.9743 1474.6852,-46.4166"/>
<polygon fill="#000000" stroke="#000000" points="1478.1554,-46.9344 1476.9082,-36.4133 1471.3221,-45.4159 1478.1554,-46.9344"/>
</g>
<!-- stateShowDashboardsPage -->
<g id="node28" class="node">
<title>stateShowDashboardsPage</title>
<polygon fill="#ff0000" stroke="#000000" points="1547,-180 1385,-180 1385,-144 1547,-144 1547,-180"/>
<text text-anchor="middle" x="1466" y="-158.3" font-family="Times,serif" font-size="14.00" fill="#000000">stateShowDashboardsPage</text>
</g>
<!-- stateShowDashboardsPage&#45;&gt;stateShowDashboardsPagePresenter -->
<g id="edge21" class="edge">
<title>stateShowDashboardsPage&#45;&gt;stateShowDashboardsPagePresenter</title>
<path fill="none" stroke="#000000" d="M1465.7477,-143.8314C1465.6407,-136.131 1465.5135,-126.9743 1465.3947,-118.4166"/>
<polygon fill="#000000" stroke="#000000" points="1468.8944,-118.3637 1465.2557,-108.4133 1461.8951,-118.4609 1468.8944,-118.3637"/>
</g>
<!-- stateShowDepartmentsPageModel -->
<g id="node29" class="node">
<title>stateShowDepartmentsPageModel</title>
<polygon fill="#8b4513" stroke="#000000" points="204,-180 0,-180 0,-144 204,-144 204,-180"/>
<text text-anchor="middle" x="102" y="-158.3" font-family="Times,serif" font-size="14.00" fill="#000000">stateShowDepartmentsPageModel</text>
</g>
<!-- stateShowDepartmentsPagePresenter&#45;&gt;stateShowDepartmentsPageModel -->
<g id="edge22" class="edge">
<title>stateShowDepartmentsPagePresenter&#45;&gt;stateShowDepartmentsPageModel</title>
<path fill="none" stroke="#000000" d="M266.0197,-215.9243C235.8208,-205.9959 198.1942,-193.6255 166.5996,-183.2382"/>
<polygon fill="#000000" stroke="#000000" points="167.5958,-179.8815 157.0029,-180.0831 165.4095,-186.5313 167.5958,-179.8815"/>
</g>
<!-- stateShowDepartmentsPageView -->
<g id="node31" class="node">
<title>stateShowDepartmentsPageView</title>
<polygon fill="#00ff00" stroke="#000000" points="419.5,-180 222.5,-180 222.5,-144 419.5,-144 419.5,-180"/>
<text text-anchor="middle" x="321" y="-158.3" font-family="Times,serif" font-size="14.00" fill="#000000">stateShowDepartmentsPageView</text>
</g>
<!-- stateShowDepartmentsPagePresenter&#45;&gt;stateShowDepartmentsPageView -->
<g id="edge23" class="edge">
<title>stateShowDepartmentsPagePresenter&#45;&gt;stateShowDepartmentsPageView</title>
<path fill="none" stroke="#000000" d="M321,-215.8314C321,-208.131 321,-198.9743 321,-190.4166"/>
<polygon fill="#000000" stroke="#000000" points="324.5001,-190.4132 321,-180.4133 317.5001,-190.4133 324.5001,-190.4132"/>
</g>
<!-- stateShowLogoutPageModel -->
<g id="node32" class="node">
<title>stateShowLogoutPageModel</title>
<polygon fill="#8b4513" stroke="#000000" points="2402.5,-36 2229.5,-36 2229.5,0 2402.5,0 2402.5,-36"/>
<text text-anchor="middle" x="2316" y="-14.3" font-family="Times,serif" font-size="14.00" fill="#000000">stateShowLogoutPageModel</text>
</g>
<!-- stateShowLogoutPagePresenter -->
<g id="node33" class="node">
<title>stateShowLogoutPagePresenter</title>
<polygon fill="#0000ff" stroke="#000000" points="2316,-108 2128,-108 2128,-72 2316,-72 2316,-108"/>
<text text-anchor="middle" x="2222" y="-86.3" font-family="Times,serif" font-size="14.00" fill="#000000">stateShowLogoutPagePresenter</text>
</g>
<!-- stateShowLogoutPagePresenter&#45;&gt;stateInitialState -->
<g id="edge27" class="edge">
<title>stateShowLogoutPagePresenter&#45;&gt;stateInitialState</title>
<path fill="none" stroke="#000000" d="M2285.9236,-71.962C2320.206,-62.2353 2363.4118,-49.8931 2410.491,-36.1325"/>
<polygon fill="#000000" stroke="#000000" points="2411.6609,-39.437 2420.2749,-33.2686 2409.6943,-32.7189 2411.6609,-39.437"/>
</g>
<!-- stateShowLogoutPagePresenter&#45;&gt;stateShowLogoutPageModel -->
<g id="edge25" class="edge">
<title>stateShowLogoutPagePresenter&#45;&gt;stateShowLogoutPageModel</title>
<path fill="none" stroke="#000000" d="M2245.7202,-71.8314C2257.4094,-62.8779 2271.6688,-51.9558 2284.2809,-42.2955"/>
<polygon fill="#000000" stroke="#000000" points="2286.4769,-45.0222 2292.2874,-36.1628 2282.2203,-39.4651 2286.4769,-45.0222"/>
</g>
<!-- stateShowLogoutPageView -->
<g id="node34" class="node">
<title>stateShowLogoutPageView</title>
<polygon fill="#00ff00" stroke="#000000" points="2211.5,-36 2044.5,-36 2044.5,0 2211.5,0 2211.5,-36"/>
<text text-anchor="middle" x="2128" y="-14.3" font-family="Times,serif" font-size="14.00" fill="#000000">stateShowLogoutPageView</text>
</g>
<!-- stateShowLogoutPagePresenter&#45;&gt;stateShowLogoutPageView -->
<g id="edge26" class="edge">
<title>stateShowLogoutPagePresenter&#45;&gt;stateShowLogoutPageView</title>
<path fill="none" stroke="#000000" d="M2198.2798,-71.8314C2186.5906,-62.8779 2172.3312,-51.9558 2159.7191,-42.2955"/>
<polygon fill="#000000" stroke="#000000" points="2161.7797,-39.4651 2151.7126,-36.1628 2157.5231,-45.0222 2161.7797,-39.4651"/>
</g>
<!-- stateShowLogoutPage -->
<g id="node35" class="node">
<title>stateShowLogoutPage</title>
<polygon fill="#ff0000" stroke="#000000" points="1894.5,-180 1757.5,-180 1757.5,-144 1894.5,-144 1894.5,-180"/>
<text text-anchor="middle" x="1826" y="-158.3" font-family="Times,serif" font-size="14.00" fill="#000000">stateShowLogoutPage</text>
</g>
<!-- stateShowLogoutPage&#45;&gt;stateShowLogoutPagePresenter -->
<g id="edge28" class="edge">
<title>stateShowLogoutPage&#45;&gt;stateShowLogoutPagePresenter</title>
<path fill="none" stroke="#000000" d="M1894.8562,-145.8797C1897.9432,-145.2297 1901.002,-144.5999 1904,-144 1974.9996,-129.7922 2055.4028,-116.1607 2117.5976,-106.1479"/>
<polygon fill="#000000" stroke="#000000" points="2118.4912,-109.5494 2127.8107,-104.5098 2117.3826,-102.6377 2118.4912,-109.5494"/>
</g>
<!-- stateShowPaymentsPageModel -->
<g id="node36" class="node">
<title>stateShowPaymentsPageModel</title>
<polygon fill="#8b4513" stroke="#000000" points="745,-36 557,-36 557,0 745,0 745,-36"/>
<text text-anchor="middle" x="651" y="-14.3" font-family="Times,serif" font-size="14.00" fill="#000000">stateShowPaymentsPageModel</text>
</g>
<!-- stateShowPaymentsPagePresenter -->
<g id="node37" class="node">
<title>stateShowPaymentsPagePresenter</title>
<polygon fill="#0000ff" stroke="#000000" points="752,-108 550,-108 550,-72 752,-72 752,-108"/>
<text text-anchor="middle" x="651" y="-86.3" font-family="Times,serif" font-size="14.00" fill="#000000">stateShowPaymentsPagePresenter</text>
</g>
<!-- stateShowPaymentsPagePresenter&#45;&gt;stateShowPaymentsPageModel -->
<g id="edge29" class="edge">
<title>stateShowPaymentsPagePresenter&#45;&gt;stateShowPaymentsPageModel</title>
<path fill="none" stroke="#000000" d="M651,-71.8314C651,-64.131 651,-54.9743 651,-46.4166"/>
<polygon fill="#000000" stroke="#000000" points="654.5001,-46.4132 651,-36.4133 647.5001,-46.4133 654.5001,-46.4132"/>
</g>
<!-- stateShowPaymentsPageView -->
<g id="node38" class="node">
<title>stateShowPaymentsPageView</title>
<polygon fill="#00ff00" stroke="#000000" points="538.5,-36 357.5,-36 357.5,0 538.5,0 538.5,-36"/>
<text text-anchor="middle" x="448" y="-14.3" font-family="Times,serif" font-size="14.00" fill="#000000">stateShowPaymentsPageView</text>
</g>
<!-- stateShowPaymentsPagePresenter&#45;&gt;stateShowPaymentsPageView -->
<g id="edge30" class="edge">
<title>stateShowPaymentsPagePresenter&#45;&gt;stateShowPaymentsPageView</title>
<path fill="none" stroke="#000000" d="M600.0366,-71.9243C572.2853,-62.0815 537.7672,-49.8386 508.6386,-39.5073"/>
<polygon fill="#000000" stroke="#000000" points="509.5792,-36.1273 498.9844,-36.0831 507.2392,-42.7246 509.5792,-36.1273"/>
</g>
<!-- stateShowPaymentsPage -->
<g id="node39" class="node">
<title>stateShowPaymentsPage</title>
<polygon fill="#ff0000" stroke="#000000" points="1197,-180 1045,-180 1045,-144 1197,-144 1197,-180"/>
<text text-anchor="middle" x="1121" y="-158.3" font-family="Times,serif" font-size="14.00" fill="#000000">stateShowPaymentsPage</text>
</g>
<!-- stateShowPaymentsPage&#45;&gt;stateShowPaymentsPagePresenter -->
<g id="edge31" class="edge">
<title>stateShowPaymentsPage&#45;&gt;stateShowPaymentsPagePresenter</title>
<path fill="none" stroke="#000000" d="M1044.6184,-145.7376C1041.3721,-145.1336 1038.1555,-144.5515 1035,-144 943.6062,-128.0277 839.3296,-113.603 762.5263,-103.6884"/>
<polygon fill="#000000" stroke="#000000" points="762.7159,-100.184 752.3512,-102.3805 761.8234,-107.1269 762.7159,-100.184"/>
</g>
<!-- stateShowPermissionsPageModel -->
<g id="node40" class="node">
<title>stateShowPermissionsPageModel</title>
<polygon fill="#8b4513" stroke="#000000" points="638,-180 438,-180 438,-144 638,-144 638,-180"/>
<text text-anchor="middle" x="538" y="-158.3" font-family="Times,serif" font-size="14.00" fill="#000000">stateShowPermissionsPageModel</text>
</g>
<!-- stateShowPermissionsPagePresenter&#45;&gt;stateShowPermissionsPageModel -->
<g id="edge32" class="edge">
<title>stateShowPermissionsPagePresenter&#45;&gt;stateShowPermissionsPageModel</title>
<path fill="none" stroke="#000000" d="M699.0239,-215.9243C669.5044,-206.0387 632.7556,-193.7321 601.8211,-183.3726"/>
<polygon fill="#000000" stroke="#000000" points="602.5921,-179.9399 591.9983,-180.0831 600.3692,-186.5776 602.5921,-179.9399"/>
</g>
<!-- stateShowPermissionsPageView -->
<g id="node42" class="node">
<title>stateShowPermissionsPageView</title>
<polygon fill="#00ff00" stroke="#000000" points="850,-180 656,-180 656,-144 850,-144 850,-180"/>
<text text-anchor="middle" x="753" y="-158.3" font-family="Times,serif" font-size="14.00" fill="#000000">stateShowPermissionsPageView</text>
</g>
<!-- stateShowPermissionsPagePresenter&#45;&gt;stateShowPermissionsPageView -->
<g id="edge33" class="edge">
<title>stateShowPermissionsPagePresenter&#45;&gt;stateShowPermissionsPageView</title>
<path fill="none" stroke="#000000" d="M753,-215.8314C753,-208.131 753,-198.9743 753,-190.4166"/>
<polygon fill="#000000" stroke="#000000" points="756.5001,-190.4132 753,-180.4133 749.5001,-190.4133 756.5001,-190.4132"/>
</g>
<!-- stateShowUserMenuModel -->
<g id="node43" class="node">
<title>stateShowUserMenuModel</title>
<polygon fill="#8b4513" stroke="#000000" points="2079,-180 1913,-180 1913,-144 2079,-144 2079,-180"/>
<text text-anchor="middle" x="1996" y="-158.3" font-family="Times,serif" font-size="14.00" fill="#000000">stateShowUserMenuModel</text>
</g>
<!-- stateShowUserMenuPresenter&#45;&gt;stateShowConfigurationPage -->
<g id="edge39" class="edge">
<title>stateShowUserMenuPresenter&#45;&gt;stateShowConfigurationPage</title>
<path fill="none" stroke="#000000" d="M1512.9357,-215.8314C1538.1437,-206.0734 1569.3926,-193.977 1595.8791,-183.7242"/>
<polygon fill="#000000" stroke="#000000" points="1597.3397,-186.912 1605.4019,-180.038 1594.8127,-180.384 1597.3397,-186.912"/>
</g>
<!-- stateShowUserMenuPresenter&#45;&gt;stateShowDashboardsPage -->
<g id="edge37" class="edge">
<title>stateShowUserMenuPresenter&#45;&gt;stateShowDashboardsPage</title>
<path fill="none" stroke="#000000" d="M1466,-215.8314C1466,-208.131 1466,-198.9743 1466,-190.4166"/>
<polygon fill="#000000" stroke="#000000" points="1469.5001,-190.4132 1466,-180.4133 1462.5001,-190.4133 1469.5001,-190.4132"/>
</g>
<!-- stateShowUserMenuPresenter&#45;&gt;stateShowLogoutPage -->
<g id="edge41" class="edge">
<title>stateShowUserMenuPresenter&#45;&gt;stateShowLogoutPage</title>
<path fill="none" stroke="#000000" d="M1556.0268,-217.6529C1608.9934,-207.824 1677.5056,-194.7477 1747.2758,-180.1162"/>
<polygon fill="#000000" stroke="#000000" points="1748.0635,-183.5272 1757.1276,-178.0415 1746.6209,-176.6774 1748.0635,-183.5272"/>
</g>
<!-- stateShowUserMenuPresenter&#45;&gt;stateShowPaymentsPage -->
<g id="edge38" class="edge">
<title>stateShowUserMenuPresenter&#45;&gt;stateShowPaymentsPage</title>
<path fill="none" stroke="#000000" d="M1378.7225,-215.9616C1330.8098,-206.0381 1270.0648,-193.4228 1207.5067,-180.3127"/>
<polygon fill="#000000" stroke="#000000" points="1207.9581,-176.8313 1197.4527,-178.2047 1206.5216,-183.6823 1207.9581,-176.8313"/>
</g>
<!-- stateShowUserMenuPresenter&#45;&gt;stateShowUserMenuModel -->
<g id="edge35" class="edge">
<title>stateShowUserMenuPresenter&#45;&gt;stateShowUserMenuModel</title>
<path fill="none" stroke="#000000" d="M1556.2231,-224.6699C1644.7631,-215.0857 1783.5148,-198.9229 1903,-180 1903.1015,-179.9839 1903.2031,-179.9678 1903.3047,-179.9517"/>
<polygon fill="#000000" stroke="#000000" points="1903.5964,-183.4508 1912.8967,-178.3759 1902.4616,-176.5434 1903.5964,-183.4508"/>
</g>
<!-- stateShowUserMenuView -->
<g id="node45" class="node">
<title>stateShowUserMenuView</title>
<polygon fill="#00ff00" stroke="#000000" points="1026.5,-180 867.5,-180 867.5,-144 1026.5,-144 1026.5,-180"/>
<text text-anchor="middle" x="947" y="-158.3" font-family="Times,serif" font-size="14.00" fill="#000000">stateShowUserMenuView</text>
</g>
<!-- stateShowUserMenuPresenter&#45;&gt;stateShowUserMenuView -->
<g id="edge36" class="edge">
<title>stateShowUserMenuPresenter&#45;&gt;stateShowUserMenuView</title>
<path fill="none" stroke="#000000" d="M1375.9496,-224.6702C1291.053,-215.4203 1160.0734,-199.9823 1036.5412,-180.0208"/>
<polygon fill="#000000" stroke="#000000" points="1036.955,-176.5422 1026.5224,-178.3891 1035.8298,-183.4511 1036.955,-176.5422"/>
</g>
<!-- stateShowYourDataPage -->
<g id="node46" class="node">
<title>stateShowYourDataPage</title>
<polygon fill="#ff0000" stroke="#000000" points="1367,-180 1215,-180 1215,-144 1367,-144 1367,-180"/>
<text text-anchor="middle" x="1291" y="-158.3" font-family="Times,serif" font-size="14.00" fill="#000000">stateShowYourDataPage</text>
</g>
<!-- stateShowUserMenuPresenter&#45;&gt;stateShowYourDataPage -->
<g id="edge40" class="edge">
<title>stateShowUserMenuPresenter&#45;&gt;stateShowYourDataPage</title>
<path fill="none" stroke="#000000" d="M1421.8401,-215.8314C1398.2268,-206.1162 1368.9798,-194.0831 1344.13,-183.8592"/>
<polygon fill="#000000" stroke="#000000" points="1345.4219,-180.6061 1334.8423,-180.038 1342.7585,-187.0797 1345.4219,-180.6061"/>
</g>
<!-- stateShowYourDataPagePresenter -->
<g id="node51" class="node">
<title>stateShowYourDataPagePresenter</title>
<polygon fill="#0000ff" stroke="#000000" points="1158,-108 956,-108 956,-72 1158,-72 1158,-108"/>
<text text-anchor="middle" x="1057" y="-86.3" font-family="Times,serif" font-size="14.00" fill="#000000">stateShowYourDataPagePresenter</text>
</g>
<!-- stateShowYourDataPage&#45;&gt;stateShowYourDataPagePresenter -->
<g id="edge48" class="edge">
<title>stateShowYourDataPage&#45;&gt;stateShowYourDataPagePresenter</title>
<path fill="none" stroke="#000000" d="M1232.254,-143.9243C1199.8475,-133.9531 1159.4361,-121.5188 1125.588,-111.104"/>
<polygon fill="#000000" stroke="#000000" points="1126.3573,-107.6788 1115.7702,-108.0831 1124.2987,-114.3693 1126.3573,-107.6788"/>
</g>
<!-- stateShowUsersPageModel -->
<g id="node47" class="node">
<title>stateShowUsersPageModel</title>
<polygon fill="#8b4513" stroke="#000000" points="2262.5,-180 2097.5,-180 2097.5,-144 2262.5,-144 2262.5,-180"/>
<text text-anchor="middle" x="2180" y="-158.3" font-family="Times,serif" font-size="14.00" fill="#000000">stateShowUsersPageModel</text>
</g>
<!-- stateShowUsersPagePresenter&#45;&gt;stateShowUsersPageModel -->
<g id="edge43" class="edge">
<title>stateShowUsersPagePresenter&#45;&gt;stateShowUsersPageModel</title>
<path fill="none" stroke="#000000" d="M2180,-215.8314C2180,-208.131 2180,-198.9743 2180,-190.4166"/>
<polygon fill="#000000" stroke="#000000" points="2183.5001,-190.4132 2180,-180.4133 2176.5001,-190.4133 2183.5001,-190.4132"/>
</g>
<!-- stateShowUsersPageView -->
<g id="node49" class="node">
<title>stateShowUsersPageView</title>
<polygon fill="#00ff00" stroke="#000000" points="2439,-180 2281,-180 2281,-144 2439,-144 2439,-180"/>
<text text-anchor="middle" x="2360" y="-158.3" font-family="Times,serif" font-size="14.00" fill="#000000">stateShowUsersPageView</text>
</g>
<!-- stateShowUsersPagePresenter&#45;&gt;stateShowUsersPageView -->
<g id="edge44" class="edge">
<title>stateShowUsersPagePresenter&#45;&gt;stateShowUsersPageView</title>
<path fill="none" stroke="#000000" d="M2225.4216,-215.8314C2249.7095,-206.1162 2279.7922,-194.0831 2305.352,-183.8592"/>
<polygon fill="#000000" stroke="#000000" points="2306.9201,-187.0016 2314.905,-180.038 2304.3204,-180.5023 2306.9201,-187.0016"/>
</g>
<!-- stateShowYourDataPageModel -->
<g id="node50" class="node">
<title>stateShowYourDataPageModel</title>
<polygon fill="#8b4513" stroke="#000000" points="1151,-36 963,-36 963,0 1151,0 1151,-36"/>
<text text-anchor="middle" x="1057" y="-14.3" font-family="Times,serif" font-size="14.00" fill="#000000">stateShowYourDataPageModel</text>
</g>
<!-- stateShowYourDataPagePresenter&#45;&gt;stateShowYourDataPageModel -->
<g id="edge46" class="edge">
<title>stateShowYourDataPagePresenter&#45;&gt;stateShowYourDataPageModel</title>
<path fill="none" stroke="#000000" d="M1057,-71.8314C1057,-64.131 1057,-54.9743 1057,-46.4166"/>
<polygon fill="#000000" stroke="#000000" points="1060.5001,-46.4132 1057,-36.4133 1053.5001,-46.4133 1060.5001,-46.4132"/>
</g>
<!-- stateShowYourDataPageView -->
<g id="node52" class="node">
<title>stateShowYourDataPageView</title>
<polygon fill="#00ff00" stroke="#000000" points="944.5,-36 763.5,-36 763.5,0 944.5,0 944.5,-36"/>
<text text-anchor="middle" x="854" y="-14.3" font-family="Times,serif" font-size="14.00" fill="#000000">stateShowYourDataPageView</text>
</g>
<!-- stateShowYourDataPagePresenter&#45;&gt;stateShowYourDataPageView -->
<g id="edge47" class="edge">
<title>stateShowYourDataPagePresenter&#45;&gt;stateShowYourDataPageView</title>
<path fill="none" stroke="#000000" d="M1006.0366,-71.9243C978.2853,-62.0815 943.7672,-49.8386 914.6386,-39.5073"/>
<polygon fill="#000000" stroke="#000000" points="915.5792,-36.1273 904.9844,-36.0831 913.2392,-42.7246 915.5792,-36.1273"/>
</g>
</g>
</svg>
